<svg width="25" height="26" viewBox="0 0 25 26" fill="none" xmlns="http://www.w3.org/2000/svg">
            <path d="M9.68685 17.8189C7.61963 17.8406 5.86258 17.143 4.41568 15.7261C2.96879 14.3092 2.2345 12.5672 2.21282 10.5C2.19114 8.43276 2.88873 6.67571 4.3056 5.22881C5.72246 3.78192 7.4645 3.04763 9.53172 3.02595C11.5989 3.00427 13.356 3.70186 14.8029 5.11873C16.2498 6.53559 16.9841 8.27763 17.0057 10.3448C17.0145 11.1793 16.89 11.9678 16.6322 12.7102C16.3745 13.4526 16.021 14.1107 15.5718 14.6844L22.011 20.99C22.2218 21.1964 22.3289 21.4608 22.3322 21.7832C22.3356 22.1056 22.2341 22.3722 22.0277 22.583C21.8212 22.7938 21.5568 22.9009 21.2344 22.9043C20.912 22.9077 20.6454 22.8062 20.4346 22.5997L13.9954 16.2942C13.4312 16.7554 12.7807 17.1226 12.0439 17.3958C11.307 17.6691 10.5213 17.8101 9.68685 17.8189ZM9.66298 15.543C11.0854 15.5281 12.2892 15.0176 13.2744 14.0115C14.2597 13.0054 14.7448 11.7911 14.7299 10.3687C14.715 8.94632 14.2045 7.7425 13.1984 6.75726C12.1922 5.77203 10.978 5.28687 9.55558 5.30178C8.13319 5.3167 6.92937 5.82722 5.94413 6.83334C4.9589 7.83946 4.47374 9.05372 4.48866 10.4761C4.50357 11.8985 5.01409 13.1023 6.02021 14.0876C7.02633 15.0728 8.24059 15.558 9.66298 15.543Z" fill="#FCFCFC" style="fill: var(--cds-icon-color, currentColor);"></path>
        </svg>